<?xml version="1.0" standalone="no"?>
<!DOCTYPE svg PUBLIC "-//W3C//DTD SVG 20010904//EN"
 "http://www.w3.org/TR/2001/REC-SVG-20010904/DTD/svg10.dtd">
<svg version="1.0" xmlns="http://www.w3.org/2000/svg"
 width="725.000000pt" height="696.000000pt" viewBox="0 0 725.000000 696.000000"
 preserveAspectRatio="xMidYMid meet">
<metadata>
Created by potrace 1.16, written by Peter Selinger 2001-2019
</metadata>
<g transform="translate(0.000000,696.000000) scale(0.100000,-0.100000)"
fill="#000000" stroke="none">
<path d="M0 3480 l0 -3480 3625 0 3625 0 0 3480 0 3480 -3625 0 -3625 0 0
-3480z m5860 2355 c12 -15 8 -65 -15 -200 -9 -49 -105 -688 -105 -697 0 -5
-11 -20 -25 -33 l-24 -25 -1196 0 -1195 0 -9 -22 c-5 -13 -11 -43 -14 -68 -3
-25 -8 -58 -12 -75 -15 -84 -95 -581 -95 -597 0 -17 43 -18 983 -20 l982 -3 0
-45 c-1 -25 -4 -63 -8 -85 -4 -22 -32 -200 -62 -396 -30 -196 -57 -364 -61
-372 -3 -9 -12 -18 -20 -21 -8 -3 -451 -6 -984 -6 -811 0 -970 -3 -979 -14
-13 -16 -34 -129 -95 -513 -24 -150 -49 -279 -56 -288 -11 -13 -50 -15 -261
-15 l-249 0 0 253 c0 260 -6 312 -45 370 -9 14 -28 30 -43 36 -42 16 -185 32
-275 31 -45 -1 -85 -1 -88 -1 -3 1 -2 25 3 54 11 69 77 530 84 587 3 25 9 68
14 95 5 28 12 73 15 100 7 53 14 103 20 145 2 14 17 122 34 240 17 118 33 224
35 236 2 12 8 45 11 75 4 30 9 63 11 74 1 11 19 135 39 275 20 140 38 264 40
275 1 11 19 135 39 275 35 241 52 349 61 378 4 9 366 12 1768 12 1574 0 1766
-2 1777 -15z m-3666 -2997 c14 -20 16 -110 16 -775 0 -740 0 -753 -20 -773
-18 -18 -33 -20 -157 -20 -127 0 -138 2 -160 22 l-23 21 0 752 c0 663 2 753
16 773 14 21 22 22 164 22 142 0 150 -1 164 -22z m3200 0 c14 -20 16 -110 16
-774 l0 -753 -26 -20 c-24 -19 -40 -21 -160 -21 -121 0 -136 2 -154 20 -20 20
-20 33 -20 773 0 665 2 755 16 775 14 21 22 22 164 22 142 0 150 -1 164 -22z
m-3690 -180 c14 -20 16 -93 16 -600 0 -565 0 -578 -20 -598 -18 -18 -33 -20
-155 -20 -192 0 -183 -11 -185 241 0 106 -2 195 -5 197 -2 3 -26 4 -54 4 -35
-1 -56 4 -75 19 -26 20 -26 21 -26 170 0 181 4 189 100 189 l60 0 0 176 c0
247 -3 243 192 244 130 0 138 -1 152 -22z m4153 -2 l28 -24 5 -189 5 -188 68
-5 c96 -7 97 -10 97 -189 0 -173 -4 -181 -86 -181 -89 0 -84 13 -84 -202 l0
-190 -31 -29 c-31 -29 -32 -29 -155 -29 -111 0 -126 2 -144 20 -20 20 -20 30
-18 611 3 571 4 591 22 605 15 10 52 14 142 14 115 0 125 -1 151 -24z m-927
-593 l0 -158 -1300 3 -1300 2 0 155 0 155 1300 0 1300 0 0 -157z m-2144 -281
c-3 -5 -21 -116 -40 -248 -40 -270 -47 -300 -78 -339 -37 -48 -90 -65 -204
-65 -82 0 -106 3 -123 18 l-22 17 21 40 c19 37 20 58 20 312 l0 273 216 0
c118 0 213 -4 210 -8z"/>
</g>
</svg>
